# xmcd
#
# Track frame offsets:
#	150
#	23256
#	45510
#	66545
#	78110
#	96914
#	115298
#	122950
#	129797
#	134440
#	145088
#	176869
#	208215
#
# Disc length: 3278 seconds
#
# Revision: 1
# Processed by: cddbd v1.5PL3 Copyright (c) Steve Scherf et al.
# Submitted via: EasyCDDAExtractor 6.5.5.1
#
DISCID=b70ccc0d
DTITLE=Various Artist - MTV Unplugged
DYEAR=1900
DGENRE=Rap
TTITLE0=Izzo (H.o.v.a)
TTITLE1=Takeover 
TTITLE2=Girls Girls,girls 
TTITLE3=Jigga What Jigga Who 
TTITLE4=Big Pimpin 
TTITLE5=Heart Of The City "Aint No Love"
TTITLE6=Can I Get A
TTITLE7=Hard Knock Life "The Ghetto Anthem"
TTITLE8=Ain't No 
TTITLE9=Cant Knock The Hustle (Ft Mary J Blige)
TTITLE10=Jay Z - Song Cry
TTITLE11=I Just Wanna Love U "Give It 2 Me"
TTITLE12=Jigga That Nigga 
EXTD=
EXTT0=
EXTT1=
EXTT2=
EXTT3=
EXTT4=
EXTT5=
EXTT6=
EXTT7=
EXTT8=
EXTT9=
EXTT10=
EXTT11=
EXTT12=
PLAYORDER=
